<svg xmlns="http://www.w3.org/2000/svg" xmlns:xlink="http://www.w3.org/1999/xlink" version="1.1" width="69.16840362548828" height="67.5739974975586" viewBox="0 0 69.16840362548828 67.5739974975586"><defs><radialGradient cx="240.00001" cy="180.00001" r="33.08421" gradientUnits="userSpaceOnUse" id="color-1"><stop offset="0" stop-color="#000000"/><stop offset="1" stop-color="#838383"/></radialGradient><radialGradient cx="240.00001" cy="180.00001" r="11.0862" gradientUnits="userSpaceOnUse" id="color-2"><stop offset="0" stop-color="#000000"/><stop offset="1" stop-color="#9b9b9b"/></radialGradient><radialGradient cx="240.00001" cy="180.00001" r="11.0862" gradientUnits="userSpaceOnUse" id="color-3"><stop offset="0" stop-color="#000000"/><stop offset="1" stop-color="#9b9b9b"/></radialGradient><radialGradient cx="34.5842" cy="33.787" r="33.0842" gradientUnits="userSpaceOnUse" id="color-1-,0,0,1,-205.41579,-146.21301"><stop offset="0" stop-color="#000000"/><stop offset="1" stop-color="#838383"/></radialGradient></defs><g><g data-paper-data="{&quot;isPaintingLayer&quot;:true}" fill-rule="nonzero" stroke-linecap="butt" stroke-linejoin="miter" stroke-miterlimit="10" stroke-dasharray="" stroke-dashoffset="0" style="mix-blend-mode: normal"><g><path d="M 67.6684 33.787 C 67.6684 51.6186 52.8561 66.074 34.5842 66.074 C 16.3123 66.074 1.5 51.6186 1.5 33.787 C 1.5 15.9554 16.3123 1.5 34.5842 1.5 C 52.8561 1.5 67.6684 15.9554 67.6684 33.787 Z " fill="#626262" stroke="url(#color-1-,0,0,1,-205.41579,-146.21301)" stroke-width="3" style="stroke-linejoin: round; stroke-linecap: round;"/><path d="M238.08738,194.96638v-29.93274h3.82527v29.93274z" fill="#4e4e4e" stroke="url(#color-2)" stroke-width="0" transform="matrix(1,0,0,1,-205.41579,-146.21301)" style="stroke-linejoin: round; stroke-linecap: round;"/><path d="M225.03364,178.08738h29.93273v3.82527h-29.93274z" fill="#4e4e4e" stroke="url(#color-3)" stroke-width="0" transform="matrix(1,0,0,1,-205.41579,-146.21301)" style="stroke-linejoin: round; stroke-linecap: round;"/></g></g></g></svg>